<svg xmlns="http://www.w3.org/2000/svg" width="157.337" height="121.05" viewBox="0 0 157.337 121.05">
  <g id="logo" transform="translate(-35.3 336.15)">
    <path id="Path_4" data-name="Path 4" d="M53.851-334.182c.535,1.071,3.435,6.559,6.469,12.18l5.488,10.262-9.726,38.727L46.4-234.33l20.3-.089,20.3-.134,2.945-11.69c1.606-6.425,3.034-11.779,3.168-11.957.178-.134.446,1.2.625,2.989.848,8.879,1.874,14.456,3.034,16.285,2.5,3.926,4.64,4.6,14.9,4.6,12.27,0,13.34-.669,21.1-13.385,2.543-4.239,4.729-7.5,4.774-7.272a103.713,103.713,0,0,1-2.32,10.262c-1.338,5.4-2.454,9.949-2.454,10.083,0,.178,9.1.312,20.211.312H173.2l12.76-50.863,12.76-50.907-24.628.134c-26.815.134-25.565.045-29.224,2.766-2.142,1.606-3.614,3.792-10.976,16.6-3.614,6.246-6.737,11.333-6.96,11.333s-.4-1.249-.4-2.811c0-1.517-.4-6.826-.892-11.823-.758-8.031-.982-9.28-1.963-11.02a12.113,12.113,0,0,0-2.543-2.945c-3.079-2.186-3.3-2.186-36.853-2.186H52.914Zm64.516,3.3c2.231,1.606,2.677,3.3,3.435,12.894,1.249,15.527,2.142,25.878,2.275,26.011.045.045,4.685-7.763,10.262-17.4,5.622-9.637,10.708-18.2,11.333-19.051a9.676,9.676,0,0,1,3.391-2.543l2.231-1.071h21.148c19.9,0,21.1.045,20.925.758-.134.446-5.4,21.55-11.734,46.892l-11.556,46.044H137.641l.312-1.026c.848-2.588,10.306-40.958,10.039-40.6-.223.178-5.354,8.477-11.422,18.427-6.112,9.949-11.645,18.828-12.359,19.721a11,11,0,0,1-3.257,2.588c-1.829.892-2.543.937-9.994.8-7.317-.134-8.12-.223-9.28-1.071-2.32-1.7-2.409-2.142-4.6-21.594-1.383-12.27-2.32-19.854-2.409-19.944s-2.5,9.459-5.443,21.193l-5.354,21.282-16.2.134-16.2.089.268-.982c.134-.58,4.328-17.222,9.28-36.987L70-312.275l-5.086-9.548c-2.811-5.22-5.176-9.682-5.22-9.86-.089-.223,12.8-.312,28.6-.268C116.582-331.817,117.117-331.817,118.366-330.88Z" transform="translate(-6.148)" fill="#fff" stroke="#4b4b4f" stroke-width="0.1"/>
    <path id="Path_5" data-name="Path 5" d="M73.923-321.688c0,.178,2.008,4.06,4.417,8.611l4.462,8.3-3.3,13.117c-1.785,7.228-5.8,23.245-8.879,35.559S65-233.481,65-233.213c0,.312,4.194.4,13.7.357l13.7-.134,6.514-26.235c3.614-14.411,6.692-26.324,6.782-26.458.134-.134.491,1.829.758,4.372.312,2.543.937,7.9,1.383,11.957.491,4.06,1.562,13.34,2.409,20.613.848,7.317,1.785,13.7,2.052,14.188.8,1.517,2.32,1.785,9.414,1.785,7.5,0,8.789-.312,10.886-2.722.758-.848,8.076-12.537,16.285-25.922,8.209-13.43,15.08-24.405,15.214-24.45.134,0-2.632,11.511-6.157,25.521-3.525,14.054-6.469,26.011-6.6,26.547l-.223,1.026h27.484l11.02-44.3c6.112-24.316,11.065-44.393,11.02-44.617,0-.178-8.656-.312-19.185-.312-20.881,0-20.925,0-23.29,2.5-.669.714-6.559,10.529-13.117,21.817-6.514,11.288-12.046,20.7-12.27,20.925-.223.268-.4-.089-.4-.892,0-.714-.312-4.729-.669-8.879-.357-4.194-1.071-13.028-1.562-19.631-.535-6.648-1.16-12.626-1.428-13.3-.982-2.588-.625-2.543-28.912-2.543C85.568-322,73.923-321.866,73.923-321.688Z" transform="translate(-16.449 -7.809)" fill="#0a2952"/>
    <path id="Path_6" data-name="Path 6" d="M37.129-90.638,35.3-83.277h4.952c5.577,0,6.6-.4,7.674-2.945.8-1.919.8-3.079-.045-3.926-.58-.58-.535-.8.669-1.963a3.722,3.722,0,0,0,1.338-3.079,3.937,3.937,0,0,0-.535-2.275C49-97.822,47.123-98,43.866-98H38.959Zm9.146-4.729c.446.312.491.714.178,1.651-.4,1.2-.625,1.294-2.945,1.428-2.766.134-2.945-.089-2.1-2.32.357-.982.669-1.16,2.32-1.16A6.475,6.475,0,0,1,46.276-95.368Zm-1.383,5.8c.446.268.491.758.223,1.874-.4,1.517-.446,1.517-3.212,1.651-2.722.134-2.811.134-2.454-.892.892-2.989.982-3.034,2.945-3.034A6.057,6.057,0,0,1,44.893-89.567Z" transform="translate(0 -131.868)" fill="#fff"/>
    <path id="Path_7" data-name="Path 7" d="M79.433-97.465c-.446.58-6.6,11.154-7.674,13.162-.491.982-.446,1.026,1.16,1.026,1.562,0,1.785-.178,2.766-2.008l1.071-2.052,2.5.134,2.5.134.134,1.874c.134,1.874.178,1.919,1.785,1.919h1.651l-.357-5.042c-.178-2.722-.446-6.068-.58-7.362L84.162-98H82.021A4.813,4.813,0,0,0,79.433-97.465ZM81.8-89.657a5.771,5.771,0,0,1-1.963.045l-1.829-.134,1.651-2.9,1.651-2.9.357,2.855A10.828,10.828,0,0,1,81.8-89.657Z" transform="translate(-20.04 -131.868)" fill="#fff"/>
    <path id="Path_8" data-name="Path 8" d="M116.861-97.465a8.958,8.958,0,0,0-2.1,5c0,1.428,1.249,2.231,4.6,2.989a9.893,9.893,0,0,1,2.811.892,2.634,2.634,0,0,1-.268,1.472c-.4,1.071-.625,1.16-3.168,1.16-2.677,0-2.722,0-2.454-1.115.268-1.026.178-1.115-1.249-1.115-1.16,0-1.562.223-1.785.982-.848,3.3,0,3.926,5.309,3.926,3.614,0,3.926-.089,5.086-1.249,1.428-1.428,2.231-5.086,1.383-6.112a7.636,7.636,0,0,0-3.034-1.16c-3.525-.714-4.239-1.115-3.837-2.32.4-1.294.982-1.651,2.855-1.651,1.963,0,2.9.58,2.543,1.562-.268.625-.045.714,1.383.58,1.517-.134,1.651-.268,1.785-1.606.223-2.409-.4-2.766-5-2.766C119.137-98,117.352-97.777,116.861-97.465Z" transform="translate(-43.012 -131.868)" fill="#fff"/>
    <path id="Path_9" data-name="Path 9" d="M154.168-96.572C153.722-95.055,151-83.946,151-83.5a30.774,30.774,0,0,0,5.309.223c4.417,0,5.354-.134,5.577-.714.669-1.785.4-1.963-3.346-1.963h-3.614l.268-1.383c.134-.758.268-1.562.268-1.785s1.294-.4,2.9-.4c2.722,0,2.945-.089,3.346-1.16a6.166,6.166,0,0,0,.446-1.338,12.49,12.49,0,0,0-2.9-.178h-2.9l.268-1.249c.446-1.874.446-1.874,4.372-1.874,3.48,0,3.748-.045,4.015-1.026a8.592,8.592,0,0,0,.268-1.338c0-.178-2.409-.312-5.309-.312h-5.309Z" transform="translate(-64.079 -131.868)" fill="#fff"/>
    <path id="Path_10" data-name="Path 10" d="M189.193-91.441c-.892,3.659-1.74,6.96-1.874,7.406-.268.8.089.848,5.086.669,6.068-.134,6.692-.446,7.629-3.569.491-1.651.491-1.963-.357-3.079-.714-.937-.8-1.294-.357-1.294,1.874,0,3.3-4.506,1.874-5.934-.58-.625-1.651-.758-5.532-.758H190.8Zm8.968-3.837c.357.357.357.892.045,1.785-.4,1.2-.58,1.294-2.855,1.294-2.588,0-2.811-.268-1.963-2.409.357-.982.714-1.16,2.365-1.16A4.617,4.617,0,0,1,198.161-95.278Zm-1.339,5.845a2.473,2.473,0,0,1,.045,2.008c-.357,1.472-.4,1.472-3.034,1.472h-2.677l.268-1.249c.625-2.811.58-2.766,2.811-2.766A4.813,4.813,0,0,1,196.823-89.434Z" transform="translate(-84.158 -131.868)" fill="#fff"/>
    <path id="Path_11" data-name="Path 11" d="M227.284-91.14c-2.186,3.837-4.1,7.183-4.194,7.406-.089.268.58.4,1.562.312,1.517-.134,1.874-.357,2.766-2.052l1.071-1.919,2.543.134,2.5.134.134,1.874c.134,1.874.178,1.919,1.74,1.919h1.562l-.312-4.6c-.178-2.5-.446-5.756-.58-7.228l-.312-2.677-2.231-.134L231.3-98.1Zm6.023-1.115v2.677h-3.614l1.428-2.677a9.066,9.066,0,0,1,1.785-2.677C233.129-94.932,233.307-93.728,233.307-92.255Z" transform="translate(-104 -131.813)" fill="#fff"/>
    <path id="Path_12" data-name="Path 12" d="M266.268-91.352c-.937,3.659-1.785,7-1.919,7.362-.223.625.357.714,4.863.714,4.283,0,5.175-.134,5.4-.714.669-1.785.4-1.963-3.079-1.963a19.235,19.235,0,0,1-3.346-.134c0-.045.714-2.766,1.517-6.023L271.221-98h-3.346Z" transform="translate(-126.833 -131.868)" fill="#fff"/>
    <path id="Path_13" data-name="Path 13" d="M298.185-90.638,296.4-83.232l5.131-.134,5.131-.134.312-1.249.312-1.2h-3.569c-3.034,0-3.525-.089-3.3-.669.134-.4.758-2.811,1.428-5.443.625-2.588,1.249-5,1.383-5.309C303.4-97.822,303-98,301.754-98h-1.74Z" transform="translate(-144.606 -131.868)" fill="#fff"/>
  </g>
</svg>
